<?xml version="1.0" encoding="UTF-8"?>
<svg version="1.1" xmlns="http://www.w3.org/2000/svg" width="1024" height="1024">
<path d="M0 0 C337.92 0 675.84 0 1024 0 C1024 337.92 1024 675.84 1024 1024 C686.08 1024 348.16 1024 0 1024 C0 686.08 0 348.16 0 0 Z " fill="#F2F5F9" transform="translate(0,0)"/>
<path d="M0 0 C1.24904317 -0.00967334 1.24904317 -0.00967334 2.52331954 -0.0195421 C3.88774878 -0.01489629 3.88774878 -0.01489629 5.27974224 -0.01015663 C6.73528854 -0.0169533 6.73528854 -0.0169533 8.22023982 -0.02388728 C11.48057508 -0.03657487 14.74074423 -0.03490808 18.00110149 -0.03325844 C20.33513384 -0.03924098 22.6691642 -0.04604589 25.00319195 -0.05361366 C31.35034065 -0.07130922 37.69743546 -0.07597056 44.04460645 -0.07724524 C49.34038766 -0.07914256 54.63615626 -0.08649822 59.93193263 -0.09358943 C71.71142745 -0.10923758 83.49089889 -0.11492613 95.27040318 -0.11357872 C96.33060959 -0.11345885 96.33060959 -0.11345885 97.41223431 -0.11333656 C98.11990244 -0.1132548 98.82757058 -0.11317304 99.55668321 -0.1130888 C111.02337435 -0.11227604 122.48993409 -0.13141084 133.95658723 -0.1596133 C145.73261627 -0.18834791 157.50858123 -0.20215325 169.28464621 -0.20042574 C175.89514016 -0.19991544 182.50548545 -0.20563624 189.11594868 -0.22678185 C195.33349402 -0.24612687 201.55074834 -0.24631403 207.76830387 -0.23174858 C210.05036499 -0.22965473 212.33244415 -0.23439554 214.6144743 -0.2464695 C217.7300469 -0.26188592 220.84461155 -0.25263694 223.96016216 -0.23720741 C224.86308949 -0.24749454 225.76601681 -0.25778167 226.69630557 -0.26838052 C232.57132016 -0.20409167 235.98522991 0.8553532 240.81042767 4.25726891 C244.23989071 8.1264067 245.26201813 11.1257055 245.43933392 16.13226891 C244.81042767 18.25726891 244.81042767 18.25726891 242.30652142 20.49945641 C238.43438252 25.08619975 239.14828765 30.72480438 239.21884251 36.44214439 C239.24453738 38.5495869 239.23937066 40.65509734 239.22694683 42.76264 C239.20625264 47.26106413 239.22572415 51.75888516 239.24792767 56.25726891 C239.48165656 112.79198226 222.81366915 152.73864145 188.81042767 197.25726891 C188.37343548 197.83074059 187.93644329 198.40421227 187.48620892 198.99506187 C183.34232802 204.42832725 179.15838234 209.82699713 174.90930462 215.17841148 C172.52472495 218.19053484 170.16558388 221.22211325 167.81042767 224.25726891 C167.23679485 224.99284019 166.66316204 225.72841148 166.07214642 226.48627281 C151.39181428 245.42217233 140.80602286 264.49848164 143.81042767 289.25726891 C145.93489073 299.91242618 149.95130713 310.11305894 155.81042767 319.25726891 C156.38277142 320.15832359 156.95511517 321.05937828 157.54480267 321.98773766 C166.45943995 335.63597367 176.1649024 348.7820915 185.72058392 361.98383141 C189.26207272 366.87804031 192.78403654 371.78575643 196.28308392 376.71039391 C198.08913171 379.25218589 199.91306253 381.78024484 201.74402142 384.30414391 C216.4051545 404.62239633 228.44545517 425.88373139 234.81042767 450.25726891 C235.12802044 451.43216881 235.12802044 451.43216881 235.45202923 452.63080406 C239.18106593 467.13031523 239.17738655 481.69445501 239.18542767 496.56976891 C239.18841869 498.07699013 239.18841869 498.07699013 239.19147015 499.61466026 C239.19082366 502.49192798 239.17279734 505.36841397 239.14636517 508.24555016 C239.14273968 509.56430641 239.14273968 509.56430641 239.13904095 510.90970421 C239.04385675 517.02383982 239.04385675 517.02383982 236.81042767 519.25726891 C234.94690228 519.50018883 234.94690228 519.50018883 232.71277142 519.48773766 C231.91161907 519.48580406 231.11046673 519.48387047 230.28503704 519.48187828 C229.44779095 519.46963219 228.61054485 519.45738609 227.74792767 519.44476891 C226.90681438 519.44412437 226.0657011 519.44347984 225.19909954 519.44281578 C218.9506595 519.39750074 218.9506595 519.39750074 217.81042767 518.25726891 C217.69898209 515.17189518 217.64867072 512.10526672 217.63464642 509.01898766 C217.61138655 507.06259742 217.58726703 505.10621725 217.56238079 503.14984703 C217.52774517 500.07890263 217.49821137 497.00831338 217.48449993 493.93720055 C217.29068232 457.60385294 206.14853067 427.53973355 184.81042767 398.25726891 C183.73271445 396.75921107 182.65592273 395.26048997 181.57995892 393.76117516 C179.37237982 390.69074837 177.1573542 387.62592193 174.93542767 384.56586266 C170.95875985 379.08826881 167.01998603 373.58418781 163.09802532 368.0673275 C162.20295298 366.80906691 161.306708 365.55164 160.40954876 364.29486656 C156.84710614 359.30268904 153.31360682 354.29122113 149.81042767 349.25726891 C149.03964886 348.15028648 149.03964886 348.15028648 148.25329876 347.02094078 C129.78033115 320.33454515 118.55789272 295.1970686 123.14880657 261.79535484 C123.92682963 257.75419481 125.22746205 254.04489289 126.81042767 250.25726891 C127.31896282 248.80900719 127.31896282 248.80900719 127.83777142 247.33148766 C133.55611972 231.96724222 144.00432651 219.02031098 154.13366985 206.35443687 C156.56401035 203.31474193 158.96925128 200.25556227 161.37292767 197.19476891 C161.81056438 196.6381356 162.2482011 196.0815023 162.69909954 195.50800133 C181.53687916 171.76817934 181.53687916 171.76817934 197.81042767 146.25726891 C197.26386517 146.41969078 196.71730267 146.58211266 196.15417767 146.74945641 C193.48107417 147.32862883 191.04449707 147.38978009 188.31042767 147.38226891 C187.37199017 147.38484703 186.43355267 147.38742516 185.46667767 147.39008141 C183.08900136 147.27119759 181.08359671 146.93278612 178.81042767 146.25726891 C178.55261517 146.99074547 178.29480267 147.72422203 178.02917767 148.47992516 C174.37921235 156.79763458 166.87915358 162.53324156 158.81042767 166.25726891 C148.3753318 170.1483216 139.17492269 170.46993463 128.81042767 166.25726891 C124.13496943 163.80510549 119.72435945 160.80426959 115.81042767 157.25726891 C115.81042767 156.59726891 115.81042767 155.93726891 115.81042767 155.25726891 C115.3141386 155.71617516 114.81784954 156.17508141 114.30652142 156.64789391 C104.76779279 165.26351976 95.29702588 170.01888311 82.21667767 169.66742516 C72.66806034 168.51764899 63.48045129 164.24745367 56.81042767 157.25726891 C55.74727938 155.45728518 54.70591536 153.64427721 53.68542767 151.81976891 C52.14962138 149.15223964 52.14962138 149.15223964 49.81042767 147.25726891 C45.7001801 146.61573403 42.37941744 146.73458438 38.23620892 147.10101891 C34.76178851 147.25948734 33.71191266 146.89780779 30.81042767 145.25726891 C39.32237792 158.33820446 48.15094651 171.0002286 57.81042767 183.25726891 C58.80316951 184.52766924 59.79536907 185.79849356 60.78699017 187.06976891 C64.78104941 192.18091447 68.80884623 197.2640516 72.87292767 202.31976891 C74.18731553 203.96409495 75.49971008 205.61001573 76.81042767 207.25726891 C77.60191204 208.25113609 78.39339642 209.24500328 79.20886517 210.26898766 C97.99927423 234.11457359 110.19099727 259.25747985 107.81042767 290.25726891 C107.04553471 295.76868936 105.54295578 300.98015868 103.81042767 306.25726891 C103.26708782 307.91435875 103.26708782 307.91435875 102.71277142 309.60492516 C96.93928577 325.71197154 87.59964709 339.37836969 77.81042767 353.25726891 C76.8057862 354.69686027 75.80185411 356.136947 74.79870892 357.57758141 C69.55990605 365.0759179 64.19495725 372.47149444 58.74792767 379.81976891 C35.70239954 410.95310357 14.01382177 442.79417665 13.56433392 482.90961266 C13.5314464 484.92198763 13.49823405 486.93435732 13.46472454 488.94672203 C13.41704533 492.08935041 13.37246808 495.23194995 13.33362103 498.37470055 C13.29410034 501.42820558 13.24257278 504.48132042 13.18933392 507.53461266 C13.18091976 508.48037666 13.17250561 509.42614067 13.16383648 510.40056419 C13.14719448 511.27229774 13.13055248 512.1440313 13.11340618 513.04218102 C13.10309872 513.81001411 13.09279125 514.57784721 13.08217144 515.36894798 C12.81042767 517.25726891 12.81042767 517.25726891 10.81042767 519.25726891 C8.96277142 519.51605797 8.96277142 519.51605797 6.74792767 519.52289391 C5.95128704 519.52547203 5.15464642 519.52805016 4.33386517 519.53070641 C3.50113079 519.52297203 2.66839642 519.51523766 1.81042767 519.50726891 C0.97769329 519.51500328 0.14495892 519.52273766 -0.71300983 519.53070641 C-1.90797077 519.52683922 -1.90797077 519.52683922 -3.12707233 519.52289391 C-3.85797077 519.52063805 -4.58886921 519.51838219 -5.34191608 519.51605797 C-7.18957233 519.25726891 -7.18957233 519.25726891 -9.18957233 517.25726891 C-9.39032548 514.34615885 -9.46924126 511.53255089 -9.45519733 508.62055016 C-9.45711079 507.74891731 -9.45902424 506.87728447 -9.46099567 505.97923851 C-9.46235974 504.12391435 -9.45864793 502.26858071 -9.45031452 500.41327477 C-9.43978482 497.62601607 -9.450114 494.83942704 -9.46300983 492.05219078 C-9.47497323 478.35049931 -8.61626657 465.09812558 -4.93957233 451.81976891 C-4.72051228 451.01958336 -4.50145222 450.21939781 -4.27575397 449.39496422 C2.18578506 426.39526087 13.30089072 405.8333064 27.21667767 386.47748375 C28.77470335 384.3070356 30.3115089 382.12320382 31.84167767 379.93305016 C36.88754569 372.72029066 42.0206062 365.57265825 47.18542767 358.44476891 C78.57598139 316.66527786 78.57598139 316.66527786 85.81042767 266.25726891 C84.98074504 261.22014433 83.12125525 256.7945873 80.81042767 252.25726891 C80.22906048 251.10355797 79.64769329 249.94984703 79.04870892 248.76117516 C74.87141324 240.86099049 69.71092074 233.83910625 64.12243938 226.89154625 C61.91084351 224.13672251 59.73945954 221.35036426 57.56042767 218.56976891 C56.63619061 217.39379734 55.71170471 216.21802129 54.78699017 215.04242516 C54.30778118 214.43285973 53.8285722 213.8232943 53.33484173 213.19525719 C52.28022372 211.85452084 51.22483435 210.51439101 50.1688261 209.17474937 C16.1500743 165.9761802 -9.05860439 125.58695691 -9.40050983 69.12445641 C-9.42853011 66.49944965 -9.45719408 63.87444971 -9.48644733 61.24945641 C-9.52899975 57.1655042 -9.56599459 53.08160305 -9.59093952 48.99750328 C-9.61586407 45.01877017 -9.66423105 41.0404704 -9.71300983 37.06195641 C-9.7162627 35.83596733 -9.71951557 34.60997826 -9.72286701 33.346838 C-9.73943348 32.21110344 -9.75599995 31.07536888 -9.77306843 29.90521812 C-9.78115528 28.90819878 -9.78924213 27.91117943 -9.79757404 26.88394737 C-10.2499661 23.85258602 -11.2680113 22.58663357 -13.18957233 20.25726891 C-13.96552395 15.61449172 -14.28403547 10.53305733 -12.20519733 6.21039391 C-8.85716821 2.03569092 -5.2885243 0.01038178 0 0 Z " fill="#04466D" transform="translate(400.18957233428955,223.74273109436035)"/>
<path d="M0 0 C3.7902406 3.04069793 7.56981997 6.09226396 11.3125 9.19140625 C13.01483633 10.59791794 14.77121103 11.94067828 16.56640625 13.2265625 C18.78515625 15.234375 18.78515625 15.234375 19.4140625 17.34765625 C19.17143712 25.3828378 16.39795668 29.92623654 10.66015625 35.359375 C-0.0063401 44.37012437 -12.48564583 47.69640871 -26.24731445 47.65429688 C-27.28957184 47.66276642 -28.33182922 47.67123596 -29.40567017 47.67996216 C-32.81744931 47.70317229 -36.2287732 47.70435806 -39.640625 47.703125 C-42.0351733 47.71023644 -44.42971991 47.71793686 -46.82426453 47.72619629 C-51.83137758 47.73960466 -56.83833306 47.74122633 -61.84545898 47.73535156 C-68.23041979 47.72946063 -74.6146189 47.76004038 -80.99943256 47.80046844 C-85.94201155 47.82644352 -90.88440953 47.82921391 -95.82704735 47.82557678 C-98.1795461 47.82725899 -100.53205404 47.83681382 -102.88448524 47.85472107 C-120.29508604 47.97267877 -135.12263676 46.73124823 -149.21484375 35.234375 C-153.10674023 31.02449053 -156.79281794 26.87203633 -157.71484375 21.109375 C-156.72462892 13.43521007 -150.67664614 9.4681795 -144.86450195 4.95336914 C-141.36595926 2.30699771 -137.80322639 -0.2428588 -134.21484375 -2.765625 C-133.53599121 -3.24467285 -132.85713867 -3.7237207 -132.15771484 -4.21728516 C-87.17111865 -35.57881146 -43.05835542 -33.40428123 0 0 Z " fill="#48F1CD" transform="translate(584.21484375,694.765625)"/>
<path d="M0 0 C0.51046875 0.17789062 1.0209375 0.35578125 1.546875 0.5390625 C4.86459767 1.16245625 7.89071163 0.66740769 11.25 0.375 C15.40756125 0.20332332 18.19831179 0.26847575 21.41015625 3.19921875 C22.69661363 5.13550881 23.93424369 7.10499265 25.125 9.1015625 C30.05859257 16.72807434 39.34300153 21.0388301 48 23 C58.34177455 24.23845942 68.35269796 22.39783241 77.0625 16.5 C79.50447348 14.4217247 81.17758439 12.5897485 83 10 C83.66 10 84.32 10 85 10 C86.051875 11.0828125 86.051875 11.0828125 87.125 12.1875 C93.81519581 19.07274525 102.73424951 22.9112225 112.3125 23.4375 C121.92122177 23.04634849 131.81442015 19.41424642 139 13 C142.34356913 9.29758103 145.7570079 5.4859842 148 1 C149.02480469 1.01160156 150.04960938 1.02320313 151.10546875 1.03515625 C152.466144 1.04454022 153.82682124 1.05363977 155.1875 1.0625 C155.86103516 1.07087891 156.53457031 1.07925781 157.22851562 1.08789062 C160.95434131 1.10606538 164.3788042 0.89299392 168 0 C165.07277563 6.2399856 161.61094176 11.76023307 157.625 17.375 C157.01358154 18.24205566 156.40216309 19.10911133 155.7722168 20.00244141 C149.456567 28.88586851 142.76986612 37.46089882 136 46 C132.75566502 50.11768953 129.51901925 54.24144171 126.28369141 58.36621094 C125.4309233 59.45155216 124.57644121 60.53554897 123.72021484 61.61816406 C111.96830162 76.48977458 99.98499394 92.41079678 95 111 C94.48759766 112.75183594 94.48759766 112.75183594 93.96484375 114.5390625 C92.65810531 119.80886013 92.54526732 125.09401244 92.375 130.5 C92.33632813 131.51320313 92.29765625 132.52640625 92.2578125 133.5703125 C92.16436757 136.0466031 92.08113408 138.52327548 92 141 C87.05 141 82.1 141 77 141 C76.9175 138.56625 76.835 136.1325 76.75 133.625 C75.3032717 105.59019514 62.74068436 84.44163409 45.37890625 62.96875 C39.83284494 56.04755691 34.42599191 49.01543861 29 42 C28.42491699 41.2570166 27.84983398 40.5140332 27.25732422 39.74853516 C0 4.48402918 0 4.48402918 0 0 Z " fill="#46F0CD" transform="translate(431,369)"/>
<path d="M0 0 C8.22409879 5.74205095 13.45237379 12.56670444 15.515625 22.4765625 C15.76158734 24.30833467 15.89555143 26.15474195 16 28 C16.85722656 27.95359375 17.71445312 27.9071875 18.59765625 27.859375 C30.59869101 27.48053738 30.59869101 27.48053738 36 32 C40.79051261 36.86536437 42.42432974 41.2420042 42.6875 48.0625 C42.35248849 55.29251581 40.5034105 59.51410655 35.4375 64.5546875 C30.97391613 68.50495923 27.20481035 69.39724466 21.4296875 69.359375 C17.36308064 68.75788331 14.03862616 66.73227966 11 64 C11 63.34 11 62.68 11 62 C11.90492188 61.76216797 11.90492188 61.76216797 12.828125 61.51953125 C18.02504653 60.00236545 21.04260981 58.80575906 24 54 C25.36623674 51.26752652 25.128426 49.01801098 25 46 C24.67 45.67 24.34 45.34 24 45 C18.19618241 45.12091287 14.89724878 47.10605361 10.22265625 50.43359375 C7.26087076 52.52089776 4.16858893 54.24716357 1 56 C0.58219121 58.37305578 0.58219121 58.37305578 1 61 C1.825 61.474375 2.65 61.94875 3.5 62.4375 C4.325 62.953125 5.15 63.46875 6 64 C6.73380897 67.66904485 6.23882327 69.52816267 4.5546875 72.85546875 C1.58179765 77.13873788 -2.92408948 79.12524117 -7.4375 81.5 C-14.10838968 85.02596911 -19.50620025 88.01240049 -23 95 C-23.62694897 100.06037384 -23.79621574 103.79361251 -20.9375 108.125 C-17.29334815 110.45105438 -15.25473476 110.46415288 -11 110 C-10.30003906 109.92394531 -9.60007812 109.84789062 -8.87890625 109.76953125 C-6.78637002 109.16710858 -6.78637002 109.16710858 -6.09375 106.92578125 C-5.8978125 106.06339844 -5.701875 105.20101562 -5.5 104.3125 C-3.36437228 96.31525577 1.17295154 91.59134762 7 86 C7.9075 85.0925 8.815 84.185 9.75 83.25 C10.4925 82.5075 11.235 81.765 12 81 C12.38542969 80.46503906 12.77085937 79.93007813 13.16796875 79.37890625 C16.02249578 77.23040296 19.13077758 77.68552069 22.5625 77.6875 C30.08865025 77.46811081 34.99236481 75.71440648 41 71 C42.546875 69.824375 42.546875 69.824375 44.125 68.625 C44.74375 68.08875 45.3625 67.5525 46 67 C51.64444406 75.23148092 53.33986951 82.06851106 52 92 C50.27168315 99.22265747 46.03969511 103.83298243 40 108 C36.80843552 109.06385483 34.41502524 109.16677982 31.0625 109.1875 C29.50208984 109.20876953 29.50208984 109.20876953 27.91015625 109.23046875 C24.97378114 108.99792361 23.5650328 108.31101676 21 107 C18.33290931 106.83249586 18.33290931 106.83249586 16 107 C15.57589844 107.85722656 15.15179687 108.71445312 14.71484375 109.59765625 C9.64591445 119.47928326 4.70534681 126.89444432 -6 131 C-14.39689063 133.42503521 -20.59319752 131.9815086 -28.25390625 127.84375 C-34.19041877 123.85792651 -37.16982038 118.82734528 -39 112 C-39.30151832 108.37225454 -39.30408707 104.75596558 -39.30078125 101.1171875 C-39.30720894 99.54120285 -39.30720894 99.54120285 -39.31376648 97.93338013 C-39.31949828 95.71275552 -39.32001853 93.49211213 -39.31567383 91.27148438 C-39.31253011 87.90721756 -39.33593175 84.54384471 -39.36132812 81.1796875 C-39.36360313 79.01302193 -39.36430368 76.84635402 -39.36328125 74.6796875 C-39.372491 73.68863007 -39.38170074 72.69757263 -39.39118958 71.67648315 C-39.34992362 65.31151791 -38.3867413 59.71214236 -36.62516785 53.59280396 C-35.55421805 49.15117617 -36.35386505 45.60673862 -38.02734375 41.4453125 C-40.7216044 31.90178684 -40.87129136 17.88376539 -36.328125 8.94140625 C-28.02998386 -3.1885236 -13.24634875 -7.27387221 0 0 Z " fill="#ECF2F8" transform="translate(558,251)"/>
<path d="M0 0 C5.57112971 3.47736448 9.31702403 8.050454 11.77734375 14.109375 C12.20980112 17.54394398 12.19803101 20.94805414 12.17578125 24.40625 C12.17865143 25.39506165 12.18152161 26.38387329 12.18447876 27.40264893 C12.18651525 29.49044366 12.18101449 31.57825766 12.16845703 33.66601562 C12.15246635 36.83507851 12.16828485 40.00285276 12.1875 43.171875 C12.18551616 45.20833611 12.18166958 47.24479643 12.17578125 49.28125 C12.18185394 50.21700867 12.18792664 51.15276733 12.19418335 52.11688232 C12.13434499 57.81713942 11.28123958 62.61241636 9.40737915 68.003479 C8.31880003 71.64205934 9.10182717 74.45089665 10.50366211 77.89257812 C13.16842553 84.74737949 13.25911685 91.25791262 13.21484375 98.546875 C13.23482422 99.71025391 13.25480469 100.87363281 13.27539062 102.07226562 C13.27021267 111.27348862 11.83957393 118.96519348 5.58984375 125.984375 C0.62527389 130.46201477 -4.92829636 133.24131917 -11.66015625 133.609375 C-20.68805298 133.09215175 -27.49230996 128.86998609 -33.94921875 122.76953125 C-37.70387404 118.37619748 -40.01429827 113.4148204 -42.22265625 108.109375 C-46.86852517 108.59421776 -46.86852517 108.59421776 -51.22265625 110.109375 C-58.8257066 110.97112676 -65.18949029 110.94308162 -71.34375 106.046875 C-77.58935123 99.6065045 -78.92375888 92.64879114 -78.82373047 83.88916016 C-78.56620956 78.89085896 -77.51111285 75.34013734 -74.609375 71.296875 C-73.22265625 70.109375 -73.22265625 70.109375 -70.22265625 70.109375 C-68.1015625 71.3515625 -68.1015625 71.3515625 -65.78515625 72.984375 C-60.73548006 76.52171162 -58.01463573 78.25813001 -51.68920898 78.08081055 C-46.34460295 77.99409405 -42.55507114 78.09845893 -38.1953125 81.40625 C-35.72938687 84.21793716 -33.48494812 87.13333422 -31.22265625 90.109375 C-29.23612968 91.91011671 -29.23612968 91.91011671 -27.28515625 93.359375 C-23.90828756 96.1193918 -22.67409932 98.97276224 -21.22265625 103.109375 C-19.68716052 107.89453729 -19.68716052 107.89453729 -16.22265625 111.109375 C-11.51938236 111.5719921 -9.29345249 111.75631439 -5.22265625 109.296875 C-2.74893672 105.3543845 -2.58605873 102.59365516 -2.4609375 98.0234375 C-4.09992664 91.75325339 -8.70120575 88.22579718 -14.078125 84.9765625 C-15.84815381 83.96624213 -17.62570105 82.96899112 -19.41015625 81.984375 C-30.40737539 75.90013796 -30.40737539 75.90013796 -32.22265625 71.109375 C-32.41015625 67.296875 -32.41015625 67.296875 -32.22265625 64.109375 C-29.25265625 63.119375 -29.25265625 63.119375 -26.22265625 62.109375 C-26.41246212 59.25396556 -26.41246212 59.25396556 -28.22265625 56.109375 C-30.9023217 54.33453165 -33.65525257 52.92495234 -36.53515625 51.5 C-39.22265625 50.109375 -39.22265625 50.109375 -42.03515625 47.734375 C-44.89301137 45.61139691 -46.74648985 45.71435609 -50.22265625 46.109375 C-51.64655585 47.31796052 -51.64655585 47.31796052 -51.53515625 50.859375 C-51.47004723 53.88694451 -51.18221653 55.19025444 -49.78515625 57.984375 C-46.23520568 60.92823644 -42.71328521 61.46648581 -38.22265625 62.109375 C-38.22265625 63.429375 -38.22265625 64.749375 -38.22265625 66.109375 C-42.8216171 69.55859563 -47.33440569 70.58760169 -53.06640625 70.5234375 C-58.30516494 69.51744398 -62.05235227 65.34127392 -65.59765625 61.609375 C-68.86198603 56.58732918 -69.73509822 52.05370191 -69.22265625 46.109375 C-67.80297891 39.57885921 -64.41047968 35.23732052 -59.22265625 31.109375 C-55.87547365 28.99686743 -52.88939526 28.7398145 -48.97265625 28.484375 C-47.895 28.40960938 -46.81734375 28.33484375 -45.70703125 28.2578125 C-44.8871875 28.20882813 -44.06734375 28.15984375 -43.22265625 28.109375 C-43.01511719 27.27535156 -42.80757813 26.44132812 -42.59375 25.58203125 C-39.49735267 14.27175982 -34.42529756 6.21095461 -24.22265625 0.109375 C-17.04331705 -3.37875652 -7.30040905 -3.27206494 0 0 Z " fill="#EDF3F8" transform="translate(497.22265625,249.890625)"/>
<path d="M0 0 C0.51046875 0.17789062 1.0209375 0.35578125 1.546875 0.5390625 C4.86459767 1.16245625 7.89071163 0.66740769 11.25 0.375 C15.40756125 0.20332332 18.19831179 0.26847575 21.41015625 3.19921875 C22.69661363 5.13550881 23.93424369 7.10499265 25.125 9.1015625 C30.05859257 16.72807434 39.34300153 21.0388301 48 23 C58.34177455 24.23845942 68.35269796 22.39783241 77.0625 16.5 C79.50447348 14.4217247 81.17758439 12.5897485 83 10 C83.66 10 84.32 10 85 10 C86.051875 11.0828125 86.051875 11.0828125 87.125 12.1875 C93.81519581 19.07274525 102.73424951 22.9112225 112.3125 23.4375 C121.92122177 23.04634849 131.81442015 19.41424642 139 13 C142.34356913 9.29758103 145.7570079 5.4859842 148 1 C149.02480469 1.01160156 150.04960938 1.02320313 151.10546875 1.03515625 C152.466144 1.04454022 153.82682124 1.05363977 155.1875 1.0625 C155.86103516 1.07087891 156.53457031 1.07925781 157.22851562 1.08789062 C160.95434131 1.10606538 164.3788042 0.89299392 168 0 C165.07277917 6.23997806 161.61103735 11.76027711 157.625 17.375 C156.71766113 18.66144409 156.71766113 18.66144409 155.79199219 19.97387695 C151.40489008 26.14331 146.88290971 32.20074708 142.25 38.1875 C141.65396973 38.9594873 141.05793945 39.73147461 140.44384766 40.52685547 C139.89003418 41.23342285 139.3362207 41.93999023 138.765625 42.66796875 C138.03520996 43.60032349 138.03520996 43.60032349 137.29003906 44.55151367 C136 46 136 46 134 47 C133.72929688 46.50371094 133.45859375 46.00742187 133.1796875 45.49609375 C128.45226402 38.03695551 120.43003607 33.93694329 112.09397888 31.42584229 C109.76848679 30.95291829 107.62726441 30.85857036 105.25415039 30.83886719 C104.31539566 30.82925964 103.37664093 30.8196521 102.40943909 30.80975342 C101.39905075 30.80550354 100.38866241 30.80125366 99.34765625 30.796875 C97.77098427 30.78832489 97.77098427 30.78832489 96.16246033 30.77960205 C93.93408207 30.77015588 91.70568987 30.76361959 89.47729492 30.75976562 C86.1063508 30.7501254 82.73603375 30.71912518 79.36523438 30.6875 C62.44294843 30.60207479 48.50719554 30.74512133 35.72265625 43.22265625 C35.15417969 43.80917969 34.58570313 44.39570313 34 45 C29.60748493 43.43568449 27.26216171 39.98859228 24.5 36.4375 C23.72148682 35.45015869 23.72148682 35.45015869 22.92724609 34.44287109 C16.9926743 26.83668955 11.4659052 18.94639105 6 11 C5.31164062 10.00871094 4.62328125 9.01742188 3.9140625 7.99609375 C0 2.27200704 0 2.27200704 0 0 Z " fill="#EBF3F8" transform="translate(431,369)"/>
<path d="M0 0 C6.27451699 3.68946454 11.22525191 9.20063657 13.51953125 16.125 C14.67808207 24.06412192 13.23845092 30.61653833 8.51953125 37.125 C3.02457631 42.67743355 -3.03022279 45.03136475 -10.79296875 45.5625 C-16.40814494 45.39002019 -20.98205885 43.44162425 -25.48046875 40.125 C-31.41691321 33.26323929 -32.85335185 27.37197923 -32.75390625 18.421875 C-32.22141483 12.0015499 -29.74632202 8.03231073 -25.04296875 3.75 C-18.217375 -1.91951871 -8.31020411 -2.93147357 0 0 Z " fill="#0A4B6E" transform="translate(376.48046875,820.875)"/>
<path d="M0 0 C5.35184765 3.1975022 9.38557036 7.91336423 12.0625 13.5 C13.79054055 22.71621626 11.62767651 29.30305989 7 37.3125 C1.87997407 42.02831336 -3.88179338 44.77781953 -10.875 45.125 C-17.6888203 44.75876921 -23.53836496 42.46347645 -28.296875 37.4921875 C-34.03973707 30.08116073 -34.34526912 22.6056025 -33.375 13.5 C-30.84353272 6.99051272 -26.23255424 3.03663652 -20.375 -0.5 C-14.12041476 -2.58486175 -6.09211522 -2.71691582 0 0 Z " fill="#0E4D70" transform="translate(645.375,821.5)"/>
<path d="M0 0 C2.8125 -0.25 2.8125 -0.25 6 0 C8.98448969 3.05081169 9.82335139 6.30800494 10.875 10.375 C12.87177913 17.74296019 15.34606779 24.84308445 18 32 C21.4543192 24.37109931 24.09157479 16.76800617 26.29956055 8.70141602 C27.2231473 5.37995994 28.07003733 2.89494401 30 0 C33.4375 -0.5 33.4375 -0.5 37 0 C39.41896077 3.30501206 40.75702343 6.7675171 42.04296875 10.6328125 C42.39423828 11.68597656 42.74550781 12.73914063 43.10742188 13.82421875 C43.46384766 14.91347656 43.82027344 16.00273438 44.1875 17.125 C44.55552734 18.22199219 44.92355469 19.31898438 45.30273438 20.44921875 C48 28.60607027 48 28.60607027 48 32 C48.66 32 49.32 32 50 32 C50.12310547 31.30165039 50.24621094 30.60330078 50.37304688 29.88378906 C51.0492595 26.77342166 51.99093872 23.86747084 53.03125 20.859375 C53.42957031 19.70695313 53.82789063 18.55453125 54.23828125 17.3671875 C54.65464844 16.17351563 55.07101562 14.97984375 55.5 13.75 C55.91636719 12.54085937 56.33273437 11.33171875 56.76171875 10.0859375 C59.87174591 1.12825409 59.87174591 1.12825409 61 0 C62.99958364 -0.04080783 65.00045254 -0.04254356 67 0 C68.41445973 4.47501544 67.02884305 7.72836827 65.5 12 C65.23026367 12.77802979 64.96052734 13.55605957 64.68261719 14.35766602 C64.10214479 16.02793387 63.51701569 17.69658915 62.92773438 19.36376953 C61.97198918 22.07959496 61.03862328 24.80234711 60.109375 27.52734375 C59.4901578 29.3309265 58.87037936 31.13431667 58.25 32.9375 C57.95673828 33.79537109 57.66347656 34.65324219 57.36132812 35.53710938 C56.94270508 36.73883789 56.94270508 36.73883789 56.515625 37.96484375 C56.27102539 38.6724585 56.02642578 39.38007324 55.77441406 40.10913086 C55 42 55 42 53 45 C51.0546875 45.29296875 51.0546875 45.29296875 48.875 45.1875 C47.59625 45.125625 46.3175 45.06375 45 45 C41.20147788 34.71331899 37.60914539 24.35423034 34 14 C32.26333377 17.24983021 31.05389177 20.55595004 29.87109375 24.04296875 C29.47599609 25.19861328 29.08089844 26.35425781 28.67382812 27.54492188 C27.84563927 29.98500437 27.01751488 32.42510874 26.18945312 34.86523438 C25.79564453 36.01701172 25.40183594 37.16878906 24.99609375 38.35546875 C24.63700928 39.41403076 24.2779248 40.47259277 23.90795898 41.56323242 C23 44 23 44 22 45 C19.32941149 45.14115161 16.67567762 45.04247107 14 45 C12.32231112 40.58537554 10.66462388 36.16369067 9.01953125 31.73681641 C8.28845386 29.77432179 7.55364402 27.81321605 6.81640625 25.85302734 C5.5541014 22.48933884 4.30719256 19.12024072 3.0625 15.75 C2.6487915 14.65502197 2.23508301 13.56004395 1.80883789 12.43188477 C1.42977295 11.39733154 1.05070801 10.36277832 0.66015625 9.296875 C0.31605713 8.37229492 -0.02804199 7.44771484 -0.38256836 6.49511719 C-1.03415495 3.86197567 -0.91143163 2.51942848 0 0 Z " fill="#0C4D6F" transform="translate(663,820)"/>
<path d="M0 0 C14.85 0 29.7 0 45 0 C45 21.78 45 43.56 45 66 C39.16648659 60.16648659 36.88411043 54.85787185 36.0625 46.625 C35.17574726 38.5140598 33.00634687 31.88663531 27.0390625 26.09765625 C24.06696606 23.76894467 21.31098801 22.12805388 17.8125 20.6875 C14.17162284 18.50297371 13.22710401 16.07060472 11.35546875 12.3515625 C9.19198632 8.59820105 6.17064908 5.90016717 3 3 C2.01 2.01 1.02 1.02 0 0 Z " fill="#EBF3F7" transform="translate(573,250)"/>
<path d="M0 0 C14.52 0 29.04 0 44 0 C38 7 38 7 35.5 9.4375 C33.40485059 11.58502814 31.92095533 13.54406291 30.25 16 C27.40738079 19.91959093 24.43078812 21.58250334 20.17578125 23.7421875 C14.16604858 27.21639562 11.09971457 32.91585376 8.7265625 39.25390625 C7.93129574 42.25967255 7.71117424 45.02240327 7.5625 48.125 C7.21267645 54.91157686 4.74636886 59.25363114 0 64 C0 42.88 0 21.76 0 0 Z " fill="#EEF4F9" transform="translate(412,250)"/>
<path d="M0 0 C0.80103149 0.00202423 1.60206299 0.00404846 2.42736816 0.00613403 C3.24483521 0.00517731 4.06230225 0.00422058 4.90454102 0.00323486 C6.63627194 0.00255308 8.3680054 0.00440724 10.09973145 0.00857544 C12.75978298 0.01392374 15.41966566 0.00863041 18.07971191 0.00222778 C19.75809771 0.00288857 21.43648339 0.00416973 23.11486816 0.00613403 C23.91589966 0.0041098 24.71693115 0.00208557 25.54223633 0 C31.15616738 0.02399575 31.15616738 0.02399575 32.27111816 1.13894653 C32.27111816 3.77894653 32.27111816 6.41894653 32.27111816 9.13894653 C22.37111816 9.13894653 12.47111816 9.13894653 2.27111816 9.13894653 C2.27111816 15.07894653 2.27111816 21.01894653 2.27111816 27.13894653 C4.0642041 27.12734497 5.85729004 27.11574341 7.70471191 27.10379028 C10.0393463 27.09441424 12.3739818 27.08531384 14.70861816 27.07644653 C15.89262207 27.06806763 17.07662598 27.05968872 18.29650879 27.05105591 C19.42121582 27.04783325 20.54592285 27.0446106 21.70471191 27.04129028 C22.74683838 27.03605347 23.78896484 27.03081665 24.8626709 27.02542114 C27.27111816 27.13894653 27.27111816 27.13894653 28.27111816 28.13894653 C28.39611816 31.13894653 28.39611816 31.13894653 28.27111816 34.13894653 C27.27111816 35.13894653 27.27111816 35.13894653 24.8626709 35.25247192 C23.82054443 35.24723511 22.77841797 35.24199829 21.70471191 35.23660278 C20.58000488 35.23338013 19.45529785 35.23015747 18.29650879 35.22683716 C17.11250488 35.21845825 15.92850098 35.21007935 14.70861816 35.20144653 C13.52074707 35.19693481 12.33287598 35.1924231 11.10900879 35.18777466 C8.1629959 35.17594328 5.21708136 35.1594594 2.27111816 35.13894653 C2.27635498 35.86074097 2.2815918 36.5825354 2.2869873 37.32620239 C2.30769174 40.57627502 2.32075734 43.82633382 2.33361816 47.07644653 C2.34199707 48.21275513 2.35037598 49.34906372 2.35900879 50.51980591 C2.36223145 51.59939575 2.3654541 52.6789856 2.36877441 53.79129028 C2.37401123 54.79152222 2.37924805 55.79175415 2.38464355 56.82229614 C2.27111816 59.13894653 2.27111816 59.13894653 1.27111816 60.13894653 C-2.22888184 60.26394653 -2.22888184 60.26394653 -5.72888184 60.13894653 C-7.45955883 58.40826954 -6.85644713 56.07405849 -6.85827637 53.71707153 C-6.86142853 52.55917114 -6.86458069 51.40127075 -6.86782837 50.20828247 C-6.86580414 48.94790161 -6.86377991 47.68752075 -6.86169434 46.38894653 C-6.86312943 44.46357056 -6.86312943 44.46357056 -6.86459351 42.4992981 C-6.86607014 39.7789083 -6.86391703 37.05855128 -6.85925293 34.33816528 C-6.85355564 30.84409984 -6.85683483 27.3501112 -6.86282539 23.85604858 C-6.86729938 20.533675 -6.86417069 17.2113223 -6.86169434 13.88894653 C-6.86371857 12.62856567 -6.8657428 11.36818481 -6.86782837 10.0696106 C-6.86467621 8.91171021 -6.86152405 7.75380981 -6.85827637 6.56082153 C-6.85708298 5.0231311 -6.85708298 5.0231311 -6.85586548 3.45437622 C-6.60693007 -1.0847316 -3.91308329 0.01672578 0 0 Z " fill="#08496E" transform="translate(550.7288818359375,804.8610534667969)"/>
<path d="M0 0 C0.80103149 0.00202423 1.60206299 0.00404846 2.42736816 0.00613403 C3.24483521 0.00517731 4.06230225 0.00422058 4.90454102 0.00323486 C6.63627194 0.00255308 8.3680054 0.00440724 10.09973145 0.00857544 C12.75978298 0.01392374 15.41966566 0.00863041 18.07971191 0.00222778 C19.75809771 0.00288857 21.43648339 0.00416973 23.11486816 0.00613403 C23.91589966 0.0041098 24.71693115 0.00208557 25.54223633 0 C31.15616738 0.02399575 31.15616738 0.02399575 32.27111816 1.13894653 C32.27111816 3.44894653 32.27111816 5.75894653 32.27111816 8.13894653 C22.37111816 8.13894653 12.47111816 8.13894653 2.27111816 8.13894653 C2.27111816 14.40894653 2.27111816 20.67894653 2.27111816 27.13894653 C4.0642041 27.12734497 5.85729004 27.11574341 7.70471191 27.10379028 C10.0393463 27.09441424 12.3739818 27.08531384 14.70861816 27.07644653 C15.89262207 27.06806763 17.07662598 27.05968872 18.29650879 27.05105591 C19.42121582 27.04783325 20.54592285 27.0446106 21.70471191 27.04129028 C22.74683838 27.03605347 23.78896484 27.03081665 24.8626709 27.02542114 C27.27111816 27.13894653 27.27111816 27.13894653 28.27111816 28.13894653 C28.27111816 30.44894653 28.27111816 32.75894653 28.27111816 35.13894653 C19.69111816 35.13894653 11.11111816 35.13894653 2.27111816 35.13894653 C2.3107081 42.99237432 2.3107081 42.99237432 2.36120605 50.84573364 C2.36370361 51.81776733 2.36620117 52.78980103 2.36877441 53.79129028 C2.37401123 54.79152222 2.37924805 55.79175415 2.38464355 56.82229614 C2.27111816 59.13894653 2.27111816 59.13894653 1.27111816 60.13894653 C-2.22888184 60.26394653 -2.22888184 60.26394653 -5.72888184 60.13894653 C-7.45955883 58.40826954 -6.85644713 56.07405849 -6.85827637 53.71707153 C-6.86142853 52.55917114 -6.86458069 51.40127075 -6.86782837 50.20828247 C-6.86580414 48.94790161 -6.86377991 47.68752075 -6.86169434 46.38894653 C-6.86312943 44.46357056 -6.86312943 44.46357056 -6.86459351 42.4992981 C-6.86607014 39.7789083 -6.86391703 37.05855128 -6.85925293 34.33816528 C-6.85355564 30.84409984 -6.85683483 27.3501112 -6.86282539 23.85604858 C-6.86729938 20.533675 -6.86417069 17.2113223 -6.86169434 13.88894653 C-6.86371857 12.62856567 -6.8657428 11.36818481 -6.86782837 10.0696106 C-6.86467621 8.91171021 -6.86152405 7.75380981 -6.85827637 6.56082153 C-6.85708298 5.0231311 -6.85708298 5.0231311 -6.85586548 3.45437622 C-6.60693007 -1.0847316 -3.91308329 0.01672578 0 0 Z " fill="#0C4C70" transform="translate(305.7288818359375,804.8610534667969)"/>
<path d="M0 0 C2.33294775 -0.04241723 4.66702567 -0.04092937 7 0 C8.80425661 1.80425661 8.17310255 4.57830644 8.2109375 7.01171875 C8.23929687 8.24470703 8.26765625 9.47769531 8.296875 10.74804688 C8.34856829 13.35468108 8.39295229 15.96147146 8.4296875 18.56835938 C8.460625 19.80779297 8.4915625 21.04722656 8.5234375 22.32421875 C8.54325684 23.45947998 8.56307617 24.59474121 8.58349609 25.7644043 C9.0537216 29.41733434 10.09982639 31.85957094 12 35 C15.606085 37.14415865 18.86107206 37.5068075 23 37 C26.97048964 34.86204404 29.40782413 33.23256841 31 29 C31.34995453 25.9194155 31.34995453 25.9194155 31.37890625 22.51953125 C31.41306641 21.27365234 31.44722656 20.02777344 31.48242188 18.74414062 C31.50884766 17.44669922 31.53527344 16.14925781 31.5625 14.8125 C31.62213337 12.23557724 31.68571101 9.65874164 31.75390625 7.08203125 C31.77783447 5.93968018 31.8017627 4.7973291 31.82641602 3.62036133 C32 1 32 1 33 0 C38.52941176 -0.23529412 38.52941176 -0.23529412 41 1 C41.02464513 7.1055471 41.04283371 13.21106551 41.05493164 19.31665039 C41.05997288 21.39543156 41.06680574 23.47420916 41.07543945 25.55297852 C41.08751422 28.53402586 41.09323024 31.51502649 41.09765625 34.49609375 C41.10281754 35.43150497 41.10797882 36.3669162 41.11329651 37.33067322 C41.11337204 38.19149002 41.11344757 39.05230682 41.11352539 39.93920898 C41.115746 40.70087875 41.11796661 41.46254852 41.12025452 42.24729919 C41 44 41 44 40 45 C37.66702567 45.04092937 35.33294775 45.04241723 33 45 C32.34 43.35 31.68 41.7 31 40 C30.45472656 40.433125 29.90945313 40.86625 29.34765625 41.3125 C24.59494436 44.82219494 21.1246383 46.85646119 15.1328125 46.38671875 C8.35659817 45.1580645 4.79841512 42.47418649 1 37 C-0.37162491 33.2447293 -0.12668554 29.33441677 -0.09765625 25.390625 C-0.0962413 24.66381531 -0.09482635 23.93700562 -0.09336853 23.18817139 C-0.08778792 20.87540506 -0.07523904 18.56273688 -0.0625 16.25 C-0.05748249 14.67838682 -0.05292002 13.10677211 -0.04882812 11.53515625 C-0.03782485 7.69006657 -0.02057361 3.8450499 0 0 Z " fill="#0B4B6F" transform="translate(448,820)"/>
<path d="M0 0 C2.75 1.8125 2.75 1.8125 3.8125 4.3125 C3.75 6.8125 3.75 6.8125 1.75 9.8125 C1.193125 9.5959375 0.63625 9.379375 0.0625 9.15625 C-5.29434067 7.20172705 -9.54756193 6.32091051 -15.25 6.8125 C-16.24 7.4725 -17.23 8.1325 -18.25 8.8125 C-18.50030977 11.39630177 -18.50030977 11.39630177 -18.25 13.8125 C-13.35676401 15.82495823 -8.51819477 17.76171567 -3.4375 19.25 C0.72182522 20.65119112 3.26077799 22.03851824 5.75 25.8125 C6.70830715 30.15436855 6.75633227 33.99310456 4.5703125 37.9453125 C1.10940363 42.23110121 -2.23320565 44.41396803 -7.79296875 45.1484375 C-14.6575554 45.24983464 -20.16807256 44.07365092 -26.25 40.8125 C-26.91 40.1525 -27.57 39.4925 -28.25 38.8125 C-27.875 36.1875 -27.875 36.1875 -27.25 33.8125 C-24.25 32.8125 -24.25 32.8125 -21.3125 34.25 C-16.23567802 36.63588844 -10.73971894 36.24567964 -5.25 35.8125 C-4.26 35.3175 -4.26 35.3175 -3.25 34.8125 C-3.25 32.8325 -3.25 30.8525 -3.25 28.8125 C-6.87808168 27.25189133 -10.39463183 26.27348545 -14.25 25.4375 C-19.69916162 24.10533395 -23.13430329 22.63342894 -26.5625 18.0625 C-28.11614523 12.9778429 -27.91936976 9.17698451 -25.625 4.5 C-19.28909602 -2.66957556 -8.79594045 -3.18693495 0 0 Z " fill="#0B4B6F" transform="translate(527.25,821.1875)"/>
<path d="M0 0 C3.3125 2.125 3.3125 2.125 5.3125 4.125 C4.98278521 7.42214793 4.6898161 8.7476839 2.3125 11.125 C1.3225 11.125 0.3325 11.125 -0.6875 11.125 C-0.6875 10.465 -0.6875 9.805 -0.6875 9.125 C-6.03697341 6.71628593 -10.88993568 6.28341808 -16.6875 7.125 C-20.63813447 9.08470208 -23.02009525 12.08417227 -24.6875 16.125 C-25.46918343 21.70845308 -24.96963652 26.42060432 -21.6875 31.125 C-17.85154003 34.51491812 -14.87838098 35.7120402 -9.70703125 35.46484375 C-6.42300898 34.91221331 -3.7046558 33.51753344 -0.6875 32.125 C3.3125 32.125 3.3125 32.125 5.3125 33.125 C5.02599017 36.56311794 4.57816773 37.86671193 2.0625 40.3125 C-4.02032508 44.32163471 -9.52745631 45.03680181 -16.6875 44.125 C-24.08504959 41.84638516 -28.88417463 37.83344843 -32.6875 31.125 C-34.73150161 24.99299517 -34.93589327 16.69260664 -32.78125 10.53515625 C-25.9581091 -0.85861429 -12.39718444 -6.08506489 0 0 Z " fill="#0B4B70" transform="translate(431.6875,821.875)"/>
<path d="M0 0 C4.06661042 2.38464839 7.30945997 4.47973116 8.9375 9.05859375 C9.63920767 15.03313335 9.4470756 19.97576012 5.9375 25.05859375 C1.51216189 29.15203151 -1.92214255 30.42195772 -8 30.34375 C-12.2920991 29.75033478 -15.10677497 27.14614292 -17.875 23.99609375 C-20.56846651 19.6014905 -20.67892905 15.05851827 -20.0625 10.05859375 C-16.24084762 2.55683168 -8.73449915 -3.9867695 0 0 Z " fill="#ECF3F8" transform="translate(372.0625,827.94140625)"/>
<path d="M0 0 C2.30859375 1.52734375 2.30859375 1.52734375 4 3 C3.51124326 6.12804313 2.67976165 8.79865569 1.4375 11.6875 C-0.36703616 16.5816208 -1.15601883 20.84725754 0 26 C1.49543872 29.18004865 3.3007041 32.1637326 5.24145508 35.09033203 C7.08132759 37.93521104 8.04530022 39.47939589 7.74609375 42.91796875 C7.49988281 43.60503906 7.25367188 44.29210937 7 45 C4.96484375 45.92578125 4.96484375 45.92578125 2 46 C-0.83219211 44.0880495 -3.09373809 41.65983865 -5.4375 39.1875 C-6.43728882 38.151698 -6.43728882 38.151698 -7.45727539 37.0949707 C-19.12862128 24.74731702 -19.12862128 24.74731702 -19.625 15.8125 C-19.21438692 9.72969696 -16.86293952 6.13690121 -12.875 1.5625 C-8.72051321 -0.69537326 -4.63488242 -0.83653975 0 0 Z " fill="#06466C" transform="translate(488,266)"/>
<path d="M0 0 C4.2466591 2.53854344 7.41976138 5.25928414 9 10 C9.53935868 16.36443245 8.59897986 20.66908785 5 26 C1.1452722 29.62110793 -2.67787056 30.37001614 -7.94140625 30.2734375 C-11.45707642 29.80646044 -13.38179958 28.32067765 -16 26 C-19.43433594 21.39075966 -20.67086775 17.90199084 -20.38671875 12.140625 C-19.57598427 7.65292304 -16.82826117 4.95375529 -13.9375 1.625 C-9.34984113 -0.91285384 -5.10362839 -1.08194075 0 0 Z " fill="#EBF3F8" transform="translate(640,828)"/>
<path d="M0 0 C4.84505578 0.10487134 7.57175618 1.05560923 11.25 4.375 C15.3507654 10.07269808 15.16506769 15.595542 14.25 22.375 C11.89168411 29.48225338 6.26996101 34.76524058 1.1875 40.0625 C0.58599121 40.69986084 -0.01551758 41.33722168 -0.63525391 41.99389648 C-2.28060519 43.63268447 -3.80827711 45.10050783 -5.75 46.375 C-8.68359375 46.26953125 -8.68359375 46.26953125 -10.75 45.375 C-11.625 43 -11.625 43 -11.75 39.375 C-10.44656578 36.71293728 -8.93374144 34.30684876 -7.29296875 31.83984375 C-3.90757442 26.43178345 -2.86232831 21.67032684 -3.75 15.375 C-4.67829709 12.94744486 -5.73649418 10.7029956 -6.97265625 8.41796875 C-7.92080265 5.9261066 -7.73109995 4.82518156 -6.75 2.375 C-4.28003576 -0.09496424 -3.41102667 0.05168222 0 0 Z " fill="#05466C" transform="translate(544.75,265.625)"/>
<path d="M0 0 C6.15234375 -0.09765625 6.15234375 -0.09765625 8 0 C9.76723811 1.76723811 9.12762833 4.3031884 9.12939453 6.69726562 C9.13254669 7.91522827 9.13569885 9.13319092 9.13894653 10.38806152 C9.13715675 11.72745805 9.1351058 13.06685424 9.1328125 14.40625 C9.1334856 15.7700604 9.13445567 17.13387068 9.13571167 18.49768066 C9.13718838 21.35930521 9.13503497 24.2208986 9.13037109 27.08251953 C9.12467381 30.75818614 9.12795296 34.43377974 9.13394356 38.10944366 C9.13754991 40.92662104 9.13641025 43.74378098 9.13381577 46.56095886 C9.1331467 47.91660063 9.13397421 49.27224396 9.13629532 50.62788391 C9.13882301 52.51950044 9.13429014 54.41112249 9.12939453 56.30273438 C9.12859894 57.38115601 9.12780334 58.45957764 9.12698364 59.57067871 C9 62 9 62 8 63 C4.5 63.125 4.5 63.125 1 63 C0 62 0 62 -0.12025452 59.52598572 C-0.11803391 58.42678299 -0.11581329 57.32758026 -0.11352539 56.19506836 C-0.11344986 54.95385727 -0.11337433 53.71264618 -0.11329651 52.43382263 C-0.10818911 51.0691626 -0.1029731 49.70450298 -0.09765625 48.33984375 C-0.095792 46.95121817 -0.09436813 45.56259193 -0.09336853 44.17396545 C-0.08954387 40.51278885 -0.07971403 36.8516517 -0.06866455 33.19049072 C-0.05844932 29.45707737 -0.05387067 25.72365766 -0.04882812 21.99023438 C-0.03809171 14.66013823 -0.02101591 7.33007464 0 0 Z " fill="#125072" transform="translate(592,802)"/>
<path d="M0 0 C3.0625 0.125 3.0625 0.125 5.0625 1.125 C5.08714513 7.2305471 5.10533371 13.33606551 5.11743164 19.44165039 C5.12247288 21.52043156 5.12930574 23.59920916 5.13793945 25.67797852 C5.15001422 28.65902586 5.15573024 31.64002649 5.16015625 34.62109375 C5.16531754 35.55650497 5.17047882 36.4919162 5.17579651 37.45567322 C5.17590981 38.74689842 5.17590981 38.74689842 5.17602539 40.06420898 C5.178246 40.82587875 5.18046661 41.58754852 5.18275452 42.37229919 C5.0625 44.125 5.0625 44.125 4.0625 45.125 C1.72952567 45.16592937 -0.60455225 45.16741723 -2.9375 45.125 C-3.5975 43.475 -4.2575 41.825 -4.9375 40.125 C-5.515 40.640625 -6.0925 41.15625 -6.6875 41.6875 C-8.9375 43.125 -8.9375 43.125 -11.1875 42.8125 C-11.765 42.585625 -12.3425 42.35875 -12.9375 42.125 C-12.46267565 37.85158086 -9.90672587 36.02180572 -6.9375 33.125 C-4.70794223 29.6894215 -4.64702332 26.68812264 -4.55859375 22.64453125 C-4.52443359 21.39865234 -4.49027344 20.15277344 -4.45507812 18.86914062 C-4.42865234 17.57169922 -4.40222656 16.27425781 -4.375 14.9375 C-4.31536663 12.36057724 -4.25178899 9.78374164 -4.18359375 7.20703125 C-4.15966553 6.06468018 -4.1357373 4.9223291 -4.11108398 3.74536133 C-3.86570793 0.04125274 -3.75299644 0.15970198 0 0 Z " fill="#115172" transform="translate(483.9375,819.875)"/>
<path d="M0 0 C1.32 0.33 2.64 0.66 4 1 C4.42014927 5.87373151 4.49984335 8.11318116 2.0625 12.4375 C-1.79568505 15.66577728 -5.00760492 16.42868509 -10 16 C-12.27734375 15 -12.27734375 15 -14 14 C-12.61584962 10.6252416 -11.30687894 9.29752456 -8.125 7.5625 C-4.60562414 5.50206541 -2.33528739 3.40562744 0 0 Z " fill="#124C6E" transform="translate(591,333)"/>
<path d="M0 0 C0.66 0 1.32 0 2 0 C2.70125 0.886875 3.4025 1.77375 4.125 2.6875 C7.12331872 6.47816721 10.82705348 8.65983644 15 11 C14.234375 12.93359375 14.234375 12.93359375 13 15 C6.5312136 16.83282281 6.5312136 16.83282281 3.17578125 15.0078125 C0.99855096 13.22596301 -0.73475932 11.53048135 -2 9 C-2.1875 5.5 -2.1875 5.5 -2 2 C-1.34 1.34 -0.68 0.68 0 0 Z " fill="#104C6D" transform="translate(436,333)"/>
<path d="M0 0 C5.25105442 -0.02464928 10.50207545 -0.04283568 15.75317383 -0.05493164 C17.54094021 -0.05997218 19.32870245 -0.06680454 21.11645508 -0.07543945 C23.68051168 -0.0875173 26.24451397 -0.09323094 28.80859375 -0.09765625 C29.6127623 -0.10281754 30.41693085 -0.10797882 31.24546814 -0.11329651 C33.16401715 -0.11349215 35.08245368 -0.06201983 37 0 C38 1 38 1 38 9 C28.1 9 18.2 9 8 9 C8 14.94 8 20.88 8 27 C7.67 27 7.34 27 7 27 C7 20.73 7 14.46 7 8 C16.9 7.67 26.8 7.34 37 7 C36.34 5.68 35.68 4.36 35 3 C30.33691801 2.97531354 25.67387392 2.95714651 21.01074219 2.94506836 C19.42382139 2.94003412 17.83690523 2.93320631 16.25 2.92456055 C13.97134251 2.91245518 11.69274624 2.90676267 9.4140625 2.90234375 C8.70255035 2.89718246 7.99103821 2.89202118 7.25796509 2.88670349 C3.50406444 2.82685242 3.50406444 2.82685242 0 4 C0 2.68 0 1.36 0 0 Z " fill="#45778C" transform="translate(545,805)"/>
<path d="M0 0 C0.53367187 0.20496094 1.06734375 0.40992188 1.6171875 0.62109375 C7.41395572 2.717157 12.85732066 3.62810501 19 4 C19 4.33 19 4.66 19 5 C17.88625 5.103125 16.7725 5.20625 15.625 5.3125 C14.42875 5.539375 13.2325 5.76625 12 6 C11.01 7.485 11.01 7.485 10 9 C11.66342837 10.66342837 13.7825709 10.36048097 16.0625 10.5625 C16.98160156 10.64628906 17.90070312 10.73007812 18.84765625 10.81640625 C19.55792969 10.87699219 20.26820313 10.93757812 21 11 C21 11.33 21 11.66 21 12 C13.17486663 12.53556046 6.97656931 11.74086104 0 8 C-0.66 7.34 -1.32 6.68 -2 6 C-1.44444444 1.44444444 -1.44444444 1.44444444 0 0 Z " fill="#195477" transform="translate(501,854)"/>
<path d="M0 0 C13.2 0 26.4 0 40 0 C40 0.33 40 0.66 40 1 C27.13 1 14.26 1 1 1 C1.10949751 8.24314401 1.21987482 15.48617394 1.33904266 22.72914886 C1.3942744 26.10203368 1.44782467 29.47492603 1.49731445 32.84790039 C1.55496637 36.71769614 1.61867568 40.58735144 1.68359375 44.45703125 C1.70030624 45.66647903 1.71701874 46.87592682 1.73423767 48.12202454 C1.75418289 49.24296005 1.77412811 50.36389557 1.79467773 51.51879883 C1.81022202 52.50697098 1.8257663 53.49514313 1.84178162 54.51325989 C1.90213783 57.13199956 1.90213783 57.13199956 3 60 C2.01 61.32 1.02 62.64 0 64 C0 42.88 0 21.76 0 0 Z " fill="#C6E2E8" transform="translate(412,250)"/>
<path d="M0 0 C6.86845739 -0.05079385 13.73686615 -0.08577306 20.60546875 -0.10986328 C22.94109914 -0.11990831 25.276717 -0.13354677 27.61230469 -0.15087891 C30.97333881 -0.17519277 34.33420634 -0.18649827 37.6953125 -0.1953125 C38.73615997 -0.20563507 39.77700745 -0.21595764 40.84939575 -0.22659302 C45.97016379 -0.2273819 50.21027059 -0.0629386 55 2 C51.66433505 3.00343976 48.62783026 3.12901089 45.15234375 3.1328125 C43.99798828 3.13490723 42.84363281 3.13700195 41.65429688 3.13916016 C40.42775391 3.1344873 39.20121094 3.12981445 37.9375 3.125 C36.68646484 3.12161621 35.43542969 3.11823242 34.14648438 3.11474609 C26.7590032 3.07399934 19.38011889 2.96620033 12 2.625 C11.23679443 2.59422363 10.47358887 2.56344727 9.68725586 2.53173828 C5.93703375 2.32403898 3.27601393 1.79550764 0 0 Z " fill="#6FEDD5" transform="translate(492,399)"/>
<path d="M0 0 C1.32 0 2.64 0 4 0 C4 4.62 4 9.24 4 14 C2.68 14 1.36 14 0 14 C-0.33 14.99 -0.66 15.98 -1 17 C-2.90401138 15.09598862 -3.93520439 13.66574314 -4.19921875 10.953125 C-4.1886578 8.96766727 -4.09915043 6.9830086 -4 5 C-3.34 5 -2.68 5 -2 5 C-1.34 3.35 -0.68 1.7 0 0 Z " fill="#02476A" transform="translate(616,834)"/>
<path d="M0 0 C0.7425 0.495 0.7425 0.495 1.5 1 C0.51 1.33 -0.48 1.66 -1.5 2 C-1.5 2.66 -1.5 3.32 -1.5 4 C-2.82 4 -4.14 4 -5.5 4 C-5.5 3.34 -5.5 2.68 -5.5 2 C-6.16 2 -6.82 2 -7.5 2 C-7.5 2.99 -7.5 3.98 -7.5 5 C-9.81 5 -12.12 5 -14.5 5 C-14.83 4.01 -15.16 3.02 -15.5 2 C-14.84 2 -14.18 2 -13.5 2 C-13.5 1.34 -13.5 0.68 -13.5 0 C-8.97258828 -1.50913724 -4.43573202 -1.77429281 0 0 Z " fill="#04476A" transform="translate(645.5,822)"/>
<path d="M0 0 C0.33 0.99 0.66 1.98 1 3 C0.67 3.33 0.34 3.66 0 4 C-0.12307311 5.71774167 -0.17786558 7.44042739 -0.20532227 9.16235352 C-0.22526749 10.26341934 -0.24521271 11.36448517 -0.26576233 12.49891663 C-0.28247482 13.6968132 -0.29918732 14.89470978 -0.31640625 16.12890625 C-0.33718735 17.34827377 -0.35796844 18.5676413 -0.37937927 19.82395935 C-0.44500428 23.73674645 -0.50381972 27.64960317 -0.5625 31.5625 C-0.60567291 34.20768962 -0.64928678 36.85287209 -0.69335938 39.49804688 C-0.8006988 45.99862336 -0.90244067 52.49926979 -1 59 C-1.33 59 -1.66 59 -2 59 C-2.04629419 51.6026924 -2.08185426 44.20541593 -2.10362434 36.80799294 C-2.1140717 33.37324541 -2.12824805 29.93859683 -2.15087891 26.50390625 C-2.17672063 22.55730362 -2.18646493 18.61074137 -2.1953125 14.6640625 C-2.20563507 13.42757965 -2.21595764 12.1910968 -2.22659302 10.91714478 C-2.22674408 9.77611298 -2.22689514 8.63508118 -2.22705078 7.45947266 C-2.231492 6.451315 -2.23593323 5.44315735 -2.24050903 4.40444946 C-2 2 -2 2 0 0 Z " fill="#BDDAF5" transform="translate(641,246)"/>
<path d="M0 0 C0.99 0.33 1.98 0.66 3 1 C2.67 1.99 2.34 2.98 2 4 C2.66 4.33 3.32 4.66 4 5 C3.68289063 5.63292969 3.36578125 6.26585937 3.0390625 6.91796875 C1.64495753 11.05311469 1.53929479 14.97580212 1.375 19.3125 C1.33632813 20.14845703 1.29765625 20.98441406 1.2578125 21.84570312 C1.16404841 23.89679259 1.08095755 25.94836515 1 28 C0.67 28 0.34 28 0 28 C0 18.76 0 9.52 0 0 Z " fill="#064165" transform="translate(448,821)"/>
<path d="M0 0 C0 4.54264132 -2.49969806 7.32117033 -5 11 C-5.7734375 12.13888672 -5.7734375 12.13888672 -6.5625 13.30078125 C-9.56234953 17.52306946 -9.56234953 17.52306946 -11 19 C-11.99 19 -12.98 19 -14 19 C-11.85563972 16.01977049 -9.70926581 13.04099707 -7.5625 10.0625 C-6.95083984 9.21236328 -6.33917969 8.36222656 -5.70898438 7.48632812 C-5.12568359 6.67744141 -4.54238281 5.86855469 -3.94140625 5.03515625 C-3.13231812 3.91185913 -3.13231812 3.91185913 -2.30688477 2.76586914 C-1 1 -1 1 0 0 Z " fill="#1A5172" transform="translate(447,583)"/>
<path d="M0 0 C0.66 0.33 1.32 0.66 2 1 C-5.11389522 12.70615034 -5.11389522 12.70615034 -10 17 C-10 13.71752569 -9.66923327 13.17433033 -7.8125 10.64453125 C-7.13574219 9.71157227 -7.13574219 9.71157227 -6.4453125 8.75976562 C-5.96835937 8.11716797 -5.49140625 7.47457031 -5 6.8125 C-4.52304687 6.15830078 -4.04609375 5.50410156 -3.5546875 4.83007812 C-2.37610725 3.21542318 -1.18886818 1.60709503 0 0 Z " fill="#D4E8F3" transform="translate(478,576)"/>
<path d="M0 0 C1.9375 0.6875 1.9375 0.6875 3.9375 1.6875 C3.2775 3.0075 2.6175 4.3275 1.9375 5.6875 C-0.7025 5.3575 -3.3425 5.0275 -6.0625 4.6875 C-4.93885141 1.31655424 -3.84862368 -0.5831248 0 0 Z " fill="#0A4863" transform="translate(447.0625,342.3125)"/>
<path d="M0 0 C0.66 0.33 1.32 0.66 2 1 C-2.11648242 4.7632931 -5.90686382 7.62320312 -11 10 C-12.35863401 10.96534522 -13.70343137 11.95277149 -15 13 C-12.61268149 6.55424004 -5.85302305 2.92651153 0 0 Z " fill="#195171" transform="translate(551,331)"/>
<path d="M0 0 C0.33 0 0.66 0 1 0 C1.49991644 2.74954039 1.37273694 4.44333078 -0.1953125 6.78515625 C-5.52807913 13.0960434 -5.52807913 13.0960434 -9 15 C-11.75 15.1875 -11.75 15.1875 -14 15 C-11 13 -11 13 -8.515625 11.69921875 C-5.57831301 9.71516484 -4.443635 7.9011554 -2.75 4.8125 C-1.85331449 3.19707945 -0.94223819 1.5892815 0 0 Z " fill="#CAE5EE" transform="translate(656,850)"/>
<path d="M0 0 C0.66 0.33 1.32 0.66 2 1 C-0.57784846 3.64752004 -2.91648098 5.94432065 -6 8 C-6.66 8 -7.32 8 -8 8 C-8.33 8.66 -8.66 9.32 -9 10 C-10.32 9.67 -11.64 9.34 -13 9 C-8.71 6.03 -4.42 3.06 0 0 Z " fill="#63ECD2" transform="translate(465,682)"/>
<path d="M0 0 C0 2.31 0 4.62 0 7 C-2.375 6.6875 -2.375 6.6875 -5 6 C-5.66 5.01 -6.32 4.02 -7 3 C-4.49955934 -0.00052879 -4.2621484 0 0 0 Z " fill="#023B65" transform="translate(493,304)"/>
<path d="M0 0 C1.47906892 -0.02689216 2.95827483 -0.04634621 4.4375 -0.0625 C5.26121094 -0.07410156 6.08492187 -0.08570313 6.93359375 -0.09765625 C9 0 9 0 10 1 C10.04063832 2.66617115 10.042721 4.33388095 10 6 C9.34 5.01 8.68 4.02 8 3 C6.35 3.33 4.7 3.66 3 4 C2.01 2.68 1.02 1.36 0 0 Z " fill="#024260" transform="translate(523,848)"/>
<path d="M0 0 C4.63929274 5.27192357 5.27818815 11.18439031 5 18 C5.66 18.33 6.32 18.66 7 19 C6.01 19.66 5.02 20.32 4 21 C3.32944715 18.06333774 2.66340947 15.12577641 2 12.1875 C1.80921875 11.35412109 1.6184375 10.52074219 1.421875 9.66210938 C1.24140625 8.85966797 1.0609375 8.05722656 0.875 7.23046875 C0.70742188 6.49207764 0.53984375 5.75368652 0.3671875 4.99291992 C0 3 0 3 0 0 Z " fill="#4BD8D0" transform="translate(503,472)"/>
<path d="M0 0 C0.66 0 1.32 0 2 0 C2 0.66 2 1.32 2 2 C2.66 2 3.32 2 4 2 C4 2.66 4 3.32 4 4 C4.66 4 5.32 4 6 4 C6.66 5.98 7.32 7.96 8 10 C8.66 10 9.32 10 10 10 C10.33 11.65 10.66 13.3 11 15 C8.18662344 12.27376342 5.66417643 9.459781 3.25 6.375 C2.32960938 5.21097656 2.32960938 5.21097656 1.390625 4.0234375 C0 2 0 2 0 0 Z " fill="#56DCD8" transform="translate(478,432)"/>
<path d="M0 0 C1.9451 2.91765 2.45276317 4.62537285 3 8 C1 8 -1 8 -3 8 C-2.67 9.98 -2.34 11.96 -2 14 C-3.74627478 11.38058783 -4.38722388 9.96175123 -5 7 C-4.360625 6.5875 -3.72125 6.175 -3.0625 5.75 C-0.79009069 3.82189513 -0.39803561 2.88575819 0 0 Z " fill="#1C5473" transform="translate(705,834)"/>
<path d="M0 0 C1.65 0.33 3.3 0.66 5 1 C4.375 2.875 4.375 2.875 3 5 C-0.125 6.25 -0.125 6.25 -3 7 C-3 6.34 -3 5.68 -3 5 C-2.34 5 -1.68 5 -1 5 C-0.67 3.35 -0.34 1.7 0 0 Z " fill="#C7D8E1" transform="translate(455,312)"/>
<path d="M0 0 C1.3271261 3.9813783 1.06915913 7.85045227 1 12 C0.34 12 -0.32 12 -1 12 C-2.50934217 8.98131566 -2.17510672 6.32702771 -2 3 C-1.34 2.01 -0.68 1.02 0 0 Z " fill="#65EDCB" transform="translate(429,709)"/>
<path d="M0 0 C0.93065133 2.60582371 1.14917407 3.64198224 0.0625 6.25 C-0.4634375 7.11625 -0.4634375 7.11625 -1 8 C-1.66 8 -2.32 8 -3 8 C-3 9.32 -3 10.64 -3 12 C-3.99 12.33 -4.98 12.66 -6 13 C-4.58707905 8.1725201 -2.57025846 4.2837641 0 0 Z " fill="#065E75" transform="translate(535,457)"/>
<path d="M0 0 C3.48331435 3.01887244 4.79157144 5.56909529 6 10 C5.34 9.67 4.68 9.34 4 9 C4 8.34 4 7.68 4 7 C3.01 6.67 2.02 6.34 1 6 C1 5.01 1 4.02 1 3 C0.01 3 -0.98 3 -2 3 C-2 2.34 -2 1.68 -2 1 C-1.34 0.67 -0.68 0.34 0 0 Z " fill="#0D4963" transform="translate(610,305)"/>
<path d="M0 0 C1.4540625 0.0309375 1.4540625 0.0309375 2.9375 0.0625 C3.2675 0.7225 3.5975 1.3825 3.9375 2.0625 C2.6175 2.0625 1.2975 2.0625 -0.0625 2.0625 C-0.0625 2.7225 -0.0625 3.3825 -0.0625 4.0625 C-0.7225 4.0625 -1.3825 4.0625 -2.0625 4.0625 C-2.3925 4.7225 -2.7225 5.3825 -3.0625 6.0625 C-3.44468767 4.40635343 -3.77645102 2.73792976 -4.0625 1.0625 C-3.0625 0.0625 -3.0625 0.0625 0 0 Z " fill="#286178" transform="translate(666.0625,819.9375)"/>
<path d="M0 0 C0 1.32 0 2.64 0 4 C-5.75 3.25 -5.75 3.25 -8 1 C-5.07175348 0.02391783 -3.04386724 -0.08226668 0 0 Z " fill="#134F6C" transform="translate(474,386)"/>
<path d="M0 0 C0 4.33685836 -2.08014014 5.9443327 -5 9 C-5.99 9 -6.98 9 -8 9 C-6.90101298 5.70303895 -6.05402613 4.95329411 -3.4375 2.8125 C-2.79683594 2.28269531 -2.15617188 1.75289063 -1.49609375 1.20703125 C-0.75552734 0.60955078 -0.75552734 0.60955078 0 0 Z " fill="#1E5378" transform="translate(606,351)"/>
<path d="M0 0 C0 3.10551666 -0.5393715 4.35261084 -2 7 C-3.32 6.67 -4.64 6.34 -6 6 C-4.95125002 3.37812506 -4.35068687 2.20628639 -1.875 0.75 C-1.25625 0.5025 -0.6375 0.255 0 0 Z " fill="#205576" transform="translate(583,341)"/>
<path d="M0 0 C1.5625 1.6875 1.5625 1.6875 3 4 C2.6875 6.75 2.6875 6.75 2 9 C0.35 9.33 -1.3 9.66 -3 10 C-2.01 9.67 -1.02 9.34 0 9 C0 6.03 0 3.06 0 0 Z " fill="#265D80" transform="translate(493,302)"/>
<path d="M0 0 C0.99 0.33 1.98 0.66 3 1 C0.36 3.64 -2.28 6.28 -5 9 C-5 4.61031544 -2.87194899 3.23094261 0 0 Z " fill="#1F5474" transform="translate(352,824)"/>
<path d="M0 0 C0.66 0.33 1.32 0.66 2 1 C1.04882866 2.1725131 0.08882991 3.33787015 -0.875 4.5 C-1.40867187 5.1496875 -1.94234375 5.799375 -2.4921875 6.46875 C-2.98976563 6.9740625 -3.48734375 7.479375 -4 8 C-4.66 8 -5.32 8 -6 8 C-4.55746343 4.63408134 -2.66735273 2.48952921 0 0 Z " fill="#1C5676" transform="translate(407,823)"/>
<path d="M0 0 C0.33 0.66 0.66 1.32 1 2 C0.07456291 3.34173403 -0.86577405 4.67320159 -1.8125 6 C-2.33457031 6.7425 -2.85664062 7.485 -3.39453125 8.25 C-3.92433594 8.8275 -4.45414063 9.405 -5 10 C-5.99 10 -6.98 10 -8 10 C-5.36 6.7 -2.72 3.4 0 0 Z " fill="#C9E3EF" transform="translate(578,434)"/>
<path d="M0 0 C0.33 0 0.66 0 1 0 C1.22786458 2.01822917 1.45572917 4.03645833 1.68359375 6.0546875 C1.91292961 8.07404316 1.91292961 8.07404316 3 10 C2.01 11.485 2.01 11.485 1 13 C0.34 13 -0.32 13 -1 13 C-0.67 8.71 -0.34 4.42 0 0 Z " fill="#2E6389" transform="translate(610,333)"/>
<path d="M0 0 C1.65 0 3.3 0 5 0 C5 0.66 5 1.32 5 2 C5.66 2.33 6.32 2.66 7 3 C6.67 3.66 6.34 4.32 6 5 C4.02 4.34 2.04 3.68 0 3 C0 2.01 0 1.02 0 0 Z " fill="#19536B" transform="translate(523,826)"/>
<path d="M0 0 C1.32 0 2.64 0 4 0 C4 1.98 4 3.96 4 6 C2.35 6 0.7 6 -1 6 C0.32 5.67 1.64 5.34 3 5 C3 4.34 3 3.68 3 3 C2.01 3 1.02 3 0 3 C0 2.01 0 1.02 0 0 Z " fill="#094A65" transform="translate(330,833)"/>
<path d="M0 0 C0.66 0.33 1.32 0.66 2 1 C-1.01887244 4.48331435 -3.56909529 5.79157144 -8 7 C-5.42215154 4.35247996 -3.08351902 2.05567935 0 0 Z " fill="#D0E8F2" transform="translate(473,250)"/>
<path d="M0 0 C1.9375 0.75 1.9375 0.75 4 2 C4.75 4.125 4.75 4.125 5 6 C3.35 5.67 1.7 5.34 0 5 C0 3.35 0 1.7 0 0 Z " fill="#104A63" transform="translate(528,843)"/>
<path d="M0 0 C0 0.33 0 0.66 0 1 C-3.98060777 2.17076699 -7.91621717 3.25749403 -12 4 C-8.35616205 0.00912986 -5.26350451 -0.11696677 0 0 Z " fill="#B5D0E0" transform="translate(370,827)"/>
<path d="M0 0 C0.99 0 1.98 0 3 0 C3.33 1.65 3.66 3.3 4 5 C3.01 5 2.02 5 1 5 C1 4.34 1 3.68 1 3 C0.34 3 -0.32 3 -1 3 C-0.67 2.01 -0.34 1.02 0 0 Z " fill="#07445E" transform="translate(489,299)"/>
<path d="M0 0 C0 0.99 0 1.98 0 3 C-3 5.1875 -3 5.1875 -6 7 C-6.66 6.67 -7.32 6.34 -8 6 C-2.25 1.125 -2.25 1.125 0 0 Z " fill="#1A5273" transform="translate(435,271)"/>
<path d="M0 0 C0.99 0.33 1.98 0.66 3 1 C2.67 2.98 2.34 4.96 2 7 C1.34 6.67 0.68 6.34 0 6 C-0.6875 3.5 -0.6875 3.5 -1 1 C-0.67 0.67 -0.34 0.34 0 0 Z " fill="#CDE5F3" transform="translate(680,846)"/>
<path d="M0 0 C0.66 0.99 1.32 1.98 2 3 C0.35 4.65 -1.3 6.3 -3 8 C-3.66 7.67 -4.32 7.34 -5 7 C-3.35 4.69 -1.7 2.38 0 0 Z " fill="#1D5273" transform="translate(453,574)"/>
<path d="M0 0 C0.99 0.33 1.98 0.66 3 1 C1.68 3.31 0.36 5.62 -1 8 C-1.33 6.68 -1.66 5.36 -2 4 C-1.34 4 -0.68 4 0 4 C0 3.34 0 2.68 0 2 C-0.66 1.67 -1.32 1.34 -2 1 C-1.34 0.67 -0.68 0.34 0 0 Z " fill="#BEDCED" transform="translate(596,369)"/>
<path d="M0 0 C-2.8125 1.5625 -2.8125 1.5625 -6 3 C-6.99 2.67 -7.98 2.34 -9 2 C-8.67 1.34 -8.34 0.68 -8 0 C-2.55072464 -1.27536232 -2.55072464 -1.27536232 0 0 Z " fill="#174E67" transform="translate(579,310)"/>
<path d="M0 0 C0.99 1.32 1.98 2.64 3 4 C2.1875 7.25 2.1875 7.25 1 10 C0.67 10 0.34 10 0 10 C0 6.7 0 3.4 0 0 Z " fill="#D1ECF5" transform="translate(412,304)"/>
<path d="M0 0 C0.99 0 1.98 0 3 0 C3 0.66 3 1.32 3 2 C3.66 2 4.32 2 5 2 C5 2.66 5 3.32 5 4 C5.66 4 6.32 4 7 4 C6.67 4.99 6.34 5.98 6 7 C1.125 2.25 1.125 2.25 0 0 Z " fill="#E2EEF8" transform="translate(599,274)"/>
</svg>
